<?xml version="1.0" standalone="no"?>
<!DOCTYPE svg PUBLIC "-//W3C//DTD SVG 20010904//EN"
 "http://www.w3.org/TR/2001/REC-SVG-20010904/DTD/svg10.dtd">
<svg version="1.0" xmlns="http://www.w3.org/2000/svg"
 width="2000.000000pt" height="2000.000000pt" viewBox="0 0 2000.000000 2000.000000"
 preserveAspectRatio="xMidYMid meet">
<metadata>
Created by potrace 1.16, written by Peter Selinger 2001-2019
</metadata>
<g transform="translate(0.000000,2000.000000) scale(0.100000,-0.100000)"
fill="#000000" stroke="none">
<path d="M14596 17102 c-54 -7 -76 -29 -76 -78 0 -33 5 -46 22 -58 32 -23 38
-20 38 14 0 23 6 33 25 40 40 15 75 -3 75 -40 0 -34 6 -37 38 -14 19 13 22 24
20 56 -4 61 -59 91 -142 80z"/>
<path d="M14560 15782 c-29 -16 -36 -26 -38 -57 -2 -24 2 -43 14 -56 27 -30
44 -24 44 16 0 29 4 36 25 41 14 3 36 3 50 0 21 -5 25 -12 25 -41 0 -23 5 -35
13 -35 24 0 47 36 47 73 0 28 -6 40 -26 53 -39 26 -112 29 -154 6z"/>
<path d="M7441 15325 c-134 -114 -311 -226 -651 -415 -451 -251 -627 -375
-898 -635 -643 -617 -1097 -1426 -1367 -2440 -15 -55 -30 -104 -35 -108 -4 -5
-10 11 -14 35 -9 57 -50 187 -119 370 -94 249 -108 309 -153 653 -34 268 -57
398 -94 530 -67 236 -147 433 -266 648 -63 112 -85 135 -98 101 -11 -30 -6
-51 40 -160 94 -224 173 -500 198 -692 7 -53 14 -187 15 -297 2 -232 14 -403
37 -512 8 -43 51 -184 94 -313 93 -277 119 -401 157 -730 28 -248 37 -551 19
-644 l-7 -39 -37 61 c-167 276 -493 541 -947 769 -243 123 -436 176 -615 171
-93 -3 -95 -3 -95 -27 0 -22 7 -26 70 -38 219 -44 505 -183 860 -418 225 -150
332 -255 481 -475 149 -221 214 -372 264 -619 103 -511 113 -1457 24 -2521
-27 -327 -62 -674 -118 -1155 -19 -165 -38 -334 -41 -375 -5 -57 -13 -85 -34
-115 -23 -36 -26 -51 -29 -152 -4 -128 9 -169 63 -203 48 -30 98 -26 172 15
l63 35 0 -39 0 -39 -124 -72 c-173 -100 -170 -96 -174 -238 -3 -134 8 -170 68
-210 45 -31 96 -26 168 17 29 17 55 31 57 31 3 0 5 -17 5 -37 l0 -38 -132 -76
c-163 -93 -168 -101 -168 -247 0 -117 13 -158 58 -191 47 -33 111 -29 183 14
67 39 69 40 69 23 0 -27 60 -138 94 -176 l36 -40 -68 -40 c-76 -45 -97 -75
-97 -138 0 -59 25 -89 130 -152 101 -61 136 -70 188 -48 l37 15 0 -404 0 -405
25 -16 c34 -22 96 -29 139 -14 66 21 66 23 66 331 l0 277 66 -35 c87 -47 109
-43 261 46 67 39 128 71 136 71 8 0 25 -8 36 -18 22 -17 22 -17 -44 -56 -74
-43 -95 -74 -95 -140 0 -60 29 -92 141 -157 93 -53 123 -58 197 -34 13 4 22 4
21 -1 -1 -5 -1 -186 0 -401 l1 -393 27 -17 c37 -24 129 -24 166 0 l27 17 0
469 0 469 153 88 c83 48 232 134 331 191 98 58 182 101 186 96 4 -4 20 -62 35
-128 31 -133 64 -249 90 -310 37 -88 77 -170 109 -225 35 -59 37 -82 20 -167
-6 -32 -30 -29 -38 4 -41 173 -90 353 -97 353 -4 0 -15 -21 -25 -46 -10 -25
-34 -74 -55 -108 -20 -33 -45 -86 -54 -118 l-18 -56 26 -45 c14 -24 42 -63 61
-86 41 -48 53 -82 65 -176 5 -39 16 -87 24 -107 43 -102 176 -224 287 -264 43
-15 50 -22 50 -45 0 -39 25 -63 120 -115 105 -57 115 -66 152 -132 64 -112
186 -196 326 -223 93 -18 255 -8 317 20 97 43 125 91 104 175 -13 54 -35 75
-151 143 -108 63 -304 252 -373 358 -57 88 -61 89 -167 42 -69 -31 -71 -40
-33 -145 14 -38 25 -72 25 -76 0 -20 -49 26 -115 109 -76 95 -124 140 -158
146 -13 3 -29 31 -53 94 -18 50 -34 93 -34 98 0 4 18 7 40 7 91 0 213 43 279
98 l32 27 -60 240 -60 240 39 235 c21 129 50 323 65 430 14 107 28 204 31 215
3 14 85 66 275 175 149 85 273 160 276 167 9 24 -26 62 -69 74 -24 7 -115 41
-202 76 l-159 63 -75 -45 -75 -45 -23 21 c-13 12 -21 25 -18 30 2 4 30 22 60
40 l57 32 -133 53 c-72 29 -176 75 -229 102 -90 45 -99 47 -120 34 -19 -13
-25 -13 -56 4 l-35 18 24 15 c24 14 23 15 -61 75 -89 63 -172 147 -201 201
l-17 33 -77 -45 -77 -44 -40 20 c-22 12 -42 21 -44 21 -3 0 -22 -30 -43 -66
-113 -194 -423 -381 -759 -459 l-100 -23 37 -16 c20 -8 57 -20 83 -26 26 -6
72 -21 103 -34 32 -13 83 -29 115 -36 51 -10 58 -14 55 -33 -5 -35 -63 -59
-128 -54 l-54 4 44 -40 c25 -21 100 -66 168 -99 67 -33 122 -65 122 -73 0 -23
-29 -38 -74 -37 -34 1 -48 -4 -66 -23 -16 -17 -34 -25 -57 -25 -19 0 -48 -7
-65 -16 -22 -11 -43 -14 -74 -9 -40 6 -51 2 -127 -43 -45 -27 -135 -80 -200
-117 l-119 -68 -35 17 c-43 21 -58 8 165 135 90 51 162 95 160 96 -2 2 -30 23
-63 47 -33 24 -103 87 -156 140 l-97 95 -225 -130 -226 -129 -35 21 c-47 30
-83 74 -96 119 -22 82 -28 77 180 196 245 140 229 128 201 157 -13 13 -73 81
-134 151 -61 71 -114 128 -117 128 -3 0 -32 -16 -64 -35 -32 -19 -62 -35 -67
-35 -5 0 -9 16 -9 35 0 30 5 37 48 61 26 15 49 29 51 30 1 2 -9 28 -24 58 -40
82 -47 172 -35 441 24 542 38 683 75 777 42 104 106 163 235 215 63 26 76 28
84 11 3 -7 4 -4 1 8 -5 18 3 24 55 43 33 12 60 27 60 34 0 7 -9 104 -20 217
-17 167 -26 215 -45 257 -35 75 -41 123 -20 166 23 50 39 60 91 61 41 1 49 -3
89 -46 54 -58 72 -61 81 -10 7 35 -8 222 -22 270 l-6 22 46 -19 c58 -25 181
-51 242 -51 78 0 166 20 219 48 44 25 50 31 49 59 -2 28 2 32 32 38 19 3 38 4
43 1 5 -3 19 -41 31 -85 13 -44 27 -78 32 -75 11 7 10 71 -3 137 -11 54 -11
57 15 88 34 40 33 97 0 114 -21 11 -21 11 -3 34 23 29 25 93 3 112 -13 10 -33
11 -102 2 -68 -9 -107 -8 -177 3 -242 36 -416 -3 -519 -117 -42 -45 -66 -95
-66 -133 0 -17 -14 -39 -42 -65 -24 -22 -44 -38 -46 -36 -5 4 -20 145 -61 545
-17 162 -37 360 -46 440 -127 1214 -156 1606 -157 2140 0 398 21 662 69 870
47 205 149 446 264 620 108 164 304 341 498 447 128 71 175 90 644 274 131 51
160 66 237 114 93 59 168 151 144 175 -6 6 -50 -8 -114 -36 -187 -81 -263
-111 -370 -144 -488 -152 -748 -282 -953 -477 -26 -25 -50 -43 -53 -41 -7 8
179 377 258 513 150 254 394 589 548 750 32 33 82 85 111 116 195 202 443 400
769 614 228 150 367 243 394 265 184 147 316 288 316 337 0 34 -18 28 -89 -32z
m-1282 -11129 l24 -13 -24 -16 c-13 -8 -69 -41 -124 -72 -252 -145 -341 -197
-349 -205 -10 -10 -78 20 -74 32 5 14 482 287 503 287 11 0 31 -6 44 -13z"/>
<path d="M14524 15281 c-154 -25 -264 -93 -264 -163 l0 -31 27 28 c66 66 182
99 343 98 164 0 268 -30 338 -96 30 -29 32 -29 32 -10 0 65 -76 129 -187 157
-75 20 -220 28 -289 17z"/>
<path d="M14532 15140 c-161 -22 -282 -95 -282 -171 0 -16 2 -29 5 -29 3 0 25
16 51 35 75 58 165 80 324 80 159 0 249 -22 324 -80 26 -19 48 -35 51 -35 14
0 2 51 -18 81 -58 87 -273 143 -455 119z"/>
<path d="M14570 12011 l0 -2838 50 5 c46 4 50 3 50 -17 0 -11 5 -21 10 -21 7
0 10 958 10 2855 l0 2855 -60 0 -60 0 0 -2839z"/>
<path d="M11668 10810 c-284 -48 -641 -360 -797 -697 -23 -50 -26 -52 -222
-164 l-199 -114 0 -46 0 -46 278 -6 c603 -15 1306 -74 1912 -162 202 -29 620
-99 729 -121 l34 -7 -6 105 c-6 118 -31 205 -80 283 -63 100 -181 208 -316
290 -39 23 -115 89 -190 165 -386 387 -804 577 -1143 520z m386 -205 c107 -31
214 -80 316 -142 82 -51 233 -164 227 -170 -2 -2 -33 3 -68 11 -136 31 -299
48 -489 51 l-195 3 -115 66 c-63 36 -121 66 -129 66 -7 0 -65 -30 -128 -66
-63 -37 -116 -64 -119 -62 -2 3 16 33 41 67 73 100 190 173 320 201 74 16 242
4 339 -25z"/>
<path d="M8894 8700 c-12 -4 -156 -86 -320 -181 -165 -95 -324 -187 -354 -204
-30 -17 -131 -76 -225 -130 -93 -54 -260 -150 -370 -213 -248 -143 -234 -133
-239 -152 -2 -8 -2 4 1 27 4 29 1 49 -8 60 -10 11 -10 14 -1 9 8 -5 12 0 12
14 0 11 12 39 28 62 23 35 27 52 27 110 0 37 1 68 3 68 2 0 13 -5 24 -11 20
-11 21 -10 15 36 -15 106 -128 255 -235 309 -81 41 -155 56 -277 56 -129 0
-209 -18 -276 -61 -43 -27 -86 -79 -102 -121 -3 -9 -21 -24 -41 -33 -50 -24
-111 -86 -139 -142 -53 -104 -60 -261 -18 -378 40 -111 43 -137 21 -201 -34
-97 -22 -162 33 -191 27 -14 29 -14 24 1 -4 9 -3 26 2 37 7 20 9 20 28 -13 11
-19 37 -42 58 -52 22 -11 33 -22 28 -27 -9 -9 -60 -39 -458 -267 l-220 -127
69 -7 c79 -9 117 -25 166 -71 78 -72 134 -166 145 -242 7 -53 44 -201 74 -300
11 -33 29 -94 41 -135 12 -41 28 -87 36 -102 8 -14 14 -31 14 -37 0 -7 7 -28
17 -49 9 -20 17 -39 18 -42 9 -32 18 -50 27 -50 6 0 7 -8 3 -17 -5 -15 -4 -16
7 -5 10 10 10 17 -1 35 -13 19 -12 21 1 10 8 -7 18 -10 22 -6 4 4 2 -5 -3 -20
-15 -39 -15 -39 25 -91 33 -43 106 -101 129 -101 6 0 16 -4 23 -9 36 -22 130
23 206 99 21 20 22 25 8 28 -12 3 -10 5 5 6 26 1 103 97 103 128 0 14 6 20 18
19 11 -1 16 5 14 18 -2 10 1 15 7 11 7 -4 8 0 5 10 -4 9 -2 15 5 13 6 -2 21
15 34 37 12 22 24 42 27 45 7 6 33 62 34 72 1 4 6 12 13 19 6 6 9 18 6 26 -3
8 6 26 20 41 33 36 70 110 61 124 -5 7 -3 8 6 3 10 -6 12 -4 7 8 -3 10 -3 17
1 17 8 0 30 45 35 75 2 11 9 32 15 47 13 30 13 38 15 133 1 39 -2 79 -7 90 -6
16 -6 17 4 5 9 -12 10 -10 5 10 -10 36 -34 72 -45 65 -5 -3 -12 0 -16 6 -4 8
-3 9 4 5 7 -4 12 -3 12 2 0 19 -73 65 -102 65 -16 0 -25 3 -19 6 5 3 -1 18
-14 33 -13 15 -26 24 -29 21 -3 -4 -6 0 -6 7 0 11 -2 12 -12 1 -9 -8 -13 -49
-14 -129 0 -66 -6 -133 -13 -154 -17 -51 -43 -50 -66 2 -10 22 -21 37 -25 35
-4 -3 -10 4 -13 15 -7 27 -53 48 -70 31 -10 -11 -7 -12 13 -7 14 3 19 3 12 0
-6 -3 -9 -11 -6 -16 4 -7 2 -8 -4 -4 -16 10 -14 -3 3 -34 8 -14 14 -51 15 -82
0 -34 4 -58 11 -58 5 0 8 -4 5 -9 -7 -11 4 -72 13 -67 13 8 9 -68 -5 -95 -15
-30 -19 -53 -5 -30 7 10 9 7 8 -12 -2 -19 -5 -23 -14 -15 -7 6 -14 8 -14 4 -1
-3 -2 -10 -3 -14 -2 -16 -145 -182 -156 -182 -5 0 -28 69 -36 109 -1 8 -6 26
-10 40 -6 25 -7 25 -15 6 -7 -15 -8 -11 -7 20 2 69 -1 87 -14 79 -7 -4 -8 -3
-4 5 9 14 -21 148 -35 156 -4 3 -6 70 -2 148 6 165 -9 266 -55 357 -30 60 -93
130 -118 130 -32 0 -1 19 89 55 l94 37 52 -54 c29 -29 50 -46 46 -38 -4 10 -1
9 8 -2 15 -19 43 -25 31 -7 -5 8 -1 8 14 0 12 -6 24 -16 28 -23 4 -7 3 -8 -4
-4 -7 4 -12 2 -12 -3 0 -6 7 -11 15 -11 8 0 15 -4 15 -9 0 -8 37 -22 50 -19 3
1 16 -4 29 -11 13 -7 33 -14 45 -16 11 -1 30 -6 40 -11 14 -5 17 -4 11 5 -5
10 -2 11 14 6 24 -7 71 17 71 37 0 6 -10 2 -23 -10 -13 -12 -27 -22 -33 -22
-5 0 -1 5 9 11 9 6 14 16 11 22 -4 7 -4 9 1 5 4 -4 14 -3 22 3 15 13 18 33 3
24 -6 -3 -10 5 -10 19 0 14 -5 28 -12 32 -7 5 -8 3 -3 -7 8 -12 6 -12 -8 0
-18 15 -23 26 -7 16 24 -15 9 10 -51 83 -8 9 9 12 78 12 78 0 93 -3 126 -26
33 -22 41 -24 55 -12 15 12 16 11 3 -5 -13 -16 -13 -20 -1 -27 8 -5 19 -6 25
-3 5 4 7 3 3 -2 -8 -9 91 -121 103 -118 5 2 6 -3 3 -11 -6 -17 12 -31 21 -16
4 6 11 7 17 4 7 -5 9 -1 5 9 -3 10 -2 17 3 17 13 0 13 -21 0 -40 -8 -13 -10
-13 -10 0 0 11 -3 11 -12 2 -8 -8 -9 -15 -3 -20 6 -4 19 -24 29 -44 11 -21 22
-38 26 -38 4 0 11 -17 15 -37 5 -27 9 -33 16 -22 7 10 9 6 8 -16 0 -16 5 -51
11 -76 9 -37 8 -58 -3 -103 -10 -36 -12 -68 -7 -91 5 -20 4 -33 -1 -29 -5 3
-9 15 -9 27 0 13 -17 -12 -40 -59 l-40 -81 15 -109 c9 -59 17 -110 19 -112 2
-2 60 30 129 71 93 56 128 72 137 63 8 -8 14 -7 21 4 9 13 10 12 5 -2 -3 -11
3 -23 17 -33 54 -38 97 -64 97 -58 0 3 6 1 13 -5 22 -19 86 -25 104 -11 14 12
15 11 9 -9 -8 -23 8 -32 17 -9 4 9 6 9 6 -1 1 -7 -10 -17 -25 -22 -24 -9 -371
-206 -387 -220 -4 -3 5 -23 20 -43 20 -26 73 -63 178 -123 83 -48 155 -86 160
-87 6 0 59 28 119 62 59 34 109 61 111 59 1 -2 8 -14 15 -27 15 -29 13 -30
-98 -94 -82 -46 -82 -42 8 -95 25 -14 102 -64 172 -110 l128 -84 82 47 c46 26
85 49 88 50 3 2 20 -5 39 -15 l35 -17 -91 -53 -90 -53 68 -64 c79 -75 97 -114
104 -223 2 -41 5 -76 5 -77 0 -1 50 28 111 63 61 35 123 71 138 79 l28 14 17
-152 c9 -84 19 -176 22 -204 4 -40 9 -53 22 -53 14 0 13 -2 -2 -13 -29 -21
-76 -154 -76 -214 0 -48 3 -55 41 -90 23 -21 58 -71 79 -114 52 -103 110 -152
210 -179 87 -23 188 -7 203 33 4 10 -5 9 -31 -5 -62 -32 -194 -7 -262 51 l-34
28 19 29 c41 63 117 100 189 92 l45 -5 -28 41 c-38 56 -64 107 -96 196 -29 81
-34 121 -18 160 9 20 42 262 80 581 4 37 10 49 29 58 13 6 24 7 24 4 0 -4 11
-77 25 -163 13 -85 27 -176 30 -202 4 -26 12 -53 19 -60 13 -14 17 -50 6 -58
-3 -3 -19 -42 -34 -88 -38 -112 -31 -169 22 -203 26 -17 50 -49 82 -108 52
-97 104 -143 186 -167 103 -30 221 -13 238 33 7 18 -4 16 -27 -4 -38 -35 -187
-18 -258 30 -48 32 -48 51 3 101 48 48 110 72 166 63 l33 -6 -34 47 c-42 57
-88 148 -111 220 -10 28 -22 52 -27 52 -5 0 -9 5 -9 11 0 5 4 8 9 5 10 -7 16
63 31 354 6 113 13 242 16 286 l6 81 75 44 c42 24 80 46 85 47 4 2 8 -176 8
-396 l0 -401 28 -21 c23 -19 37 -21 96 -18 114 6 106 -31 106 513 l0 463 86
49 c108 60 134 89 134 149 0 72 -20 96 -127 161 -122 72 -150 75 -242 20 -63
-38 -79 -39 -114 -13 -17 13 -17 16 -3 45 9 16 16 47 16 68 0 63 -29 95 -140
158 -119 68 -143 69 -239 10 -61 -36 -61 -36 -91 -18 -34 19 -35 27 -15 63 20
35 18 89 -4 126 -12 20 -52 50 -111 84 -91 52 -92 52 -153 46 -34 -4 -77 -16
-96 -27 -18 -11 -36 -17 -40 -14 -3 4 -9 50 -12 104 -9 147 -57 236 -154 283
l-40 19 109 -5 108 -5 -3 185 c-3 141 -7 187 -18 193 -9 6 -10 11 -2 15 13 9
15 63 2 71 -5 3 -17 -2 -25 -11 -9 -8 -16 -11 -16 -5 0 10 40 36 50 33 3 -1 6
58 8 132 l3 134 -34 35 c-18 20 -46 39 -63 42 -59 13 -74 23 -74 52 0 24 10
34 74 72 41 24 79 54 85 68 15 32 14 255 -1 288 -21 47 -109 84 -154 65z
m-624 -867 l-1 -38 -271 -155 c-149 -85 -310 -178 -357 -206 -47 -27 -109 -63
-136 -78 l-50 -28 -33 20 -33 20 198 115 c389 226 668 386 676 386 4 1 7 -16
7 -36z m226 -423 c1 -23 -3 -40 -10 -40 -6 0 -49 -22 -94 -49 -66 -38 -80 -49
-64 -53 16 -4 27 -25 43 -79 29 -96 30 -225 4 -452 -16 -140 -22 -170 -37
-178 -10 -6 -51 -10 -91 -11 -56 -1 -86 5 -136 25 -52 21 -68 24 -80 14 -14
-10 -14 -10 -4 4 17 21 5 33 -16 16 -14 -10 -14 -10 -3 4 15 20 35 183 27 219
-4 18 -3 21 4 11 6 -10 11 3 16 45 12 101 34 195 55 237 12 22 20 41 18 42 -4
3 -281 -157 -301 -173 -11 -9 -18 -5 -36 19 -13 17 -21 32 -19 33 1 2 39 23
83 48 44 24 198 113 343 197 151 88 269 151 277 147 8 -3 15 -1 15 4 0 6 1 10
3 10 1 0 3 -18 3 -40z m1234 -1135 c17 -9 30 -19 30 -23 0 -4 -42 -31 -92 -60
-93 -53 -93 -53 -127 -37 -18 9 -30 19 -27 23 6 6 176 109 184 111 2 1 16 -6
32 -14z"/>
<path d="M14156 8605 c-3 -9 -6 -246 -6 -526 0 -338 -3 -508 -10 -504 -6 4
-10 -10 -10 -34 0 -23 5 -41 11 -41 7 0 10 -63 9 -192 -1 -106 -1 -199 -1
-206 1 -9 12 -12 32 -10 l31 3 -1 173 c-1 113 2 172 9 172 13 0 13 87 0 92 -7
2 -11 180 -13 543 l-2 540 -21 3 c-13 2 -24 -4 -28 -13z"/>
<path d="M17248 7677 l-3 -227 -225 133 c-210 125 -225 136 -223 161 1 15 -1
26 -6 24 -4 -2 -73 -41 -153 -87 l-146 -85 -4 -85 c-3 -48 -2 -93 3 -102 5 -9
61 -47 126 -84 65 -38 143 -83 173 -101 170 -100 444 -256 505 -287 229 -114
533 -147 776 -84 97 25 205 73 228 101 38 46 16 146 -60 272 -33 54 -145 182
-153 173 -2 -2 3 -44 10 -94 15 -101 27 -322 18 -336 -3 -5 -31 12 -62 39
-224 192 -478 339 -657 381 l-50 12 2 219 c2 146 -1 221 -8 225 -6 4 -12 5
-14 3 -3 -2 -5 -101 -5 -220 -1 -184 -4 -217 -17 -222 -8 -3 -19 -4 -23 -1 -5
3 -9 112 -10 242 0 138 -4 241 -10 247 -6 6 -11 -72 -12 -217z"/>
<path d="M9966 7778 c-31 -34 -54 -68 -51 -76 2 -7 1 -10 -5 -7 -5 3 -19 -6
-33 -20 -24 -27 -51 -26 -61 1 -3 9 -1 12 4 9 13 -8 13 -1 -1 46 -11 34 -34
57 -46 45 -3 -2 -6 -22 -7 -44 -2 -22 -6 -44 -10 -50 -3 -6 -5 -40 -4 -76 1
-47 -3 -71 -14 -83 -8 -10 -13 -24 -11 -30 3 -7 0 -13 -7 -13 -6 0 -8 5 -5 10
11 17 -11 11 -28 -8 -10 -10 -14 -22 -10 -27 5 -4 2 -5 -5 -1 -15 9 -115 -61
-107 -75 4 -5 -2 -6 -11 -2 -13 5 -15 3 -9 -7 6 -10 4 -12 -7 -7 -10 3 -24 -3
-35 -15 -16 -20 -17 -21 0 -15 24 9 21 0 -4 -14 -15 -8 -19 -8 -15 0 11 17 -3
13 -31 -9 -16 -12 -41 -20 -64 -20 -25 0 -39 -5 -39 -12 0 -9 -3 -8 -10 2 -6
10 -12 12 -20 4 -7 -7 -7 -25 0 -60 5 -27 8 -67 6 -89 -2 -22 -4 -53 -5 -68
-1 -19 -5 -26 -13 -21 -6 4 -8 3 -4 -4 3 -6 -1 -18 -10 -26 -14 -15 -13 -16
11 -16 16 0 24 4 19 11 -5 8 -1 8 14 0 13 -7 36 -8 66 -2 25 4 47 6 50 4 8 -8
73 33 122 77 27 24 40 37 30 29 -15 -11 -18 -11 -12 -1 4 7 19 18 33 23 14 5
27 18 30 29 3 11 9 18 13 15 4 -3 14 3 21 12 12 14 12 16 0 8 -10 -5 -12 -4
-7 3 4 7 13 12 20 12 7 0 23 12 37 27 13 14 18 23 10 18 -10 -5 -12 -4 -7 4 4
6 11 9 15 6 5 -2 16 4 25 14 14 15 14 20 4 25 -7 3 -4 4 8 1 13 -3 27 2 39 15
20 22 8 28 -15 8 -12 -11 -12 -10 0 5 7 10 19 16 27 13 7 -3 29 6 49 19 20 14
41 25 46 25 5 0 6 5 2 12 -4 7 -3 8 5 4 7 -5 19 0 29 12 9 10 23 17 31 14 8
-3 11 0 7 7 -4 6 -1 11 7 11 9 0 13 10 12 30 -1 16 2 27 7 24 5 -4 7 -13 3
-23 -4 -12 0 -11 15 5 19 19 20 25 10 63 -6 23 -17 44 -25 47 -8 3 -17 16 -21
27 -4 12 -16 30 -27 40 l-20 17 20 23 c23 24 63 88 63 100 0 4 -3 6 -7 6 -20
-3 -26 2 -13 11 13 8 13 10 -2 10 -9 0 -42 -28 -72 -62z"/>
<path d="M13555 7384 c-60 -36 -127 -75 -147 -85 l-38 -19 0 -94 0 -93 48 -29
c26 -17 101 -61 167 -99 66 -38 217 -125 335 -193 249 -144 329 -182 446 -216
130 -38 232 -50 373 -43 127 6 270 36 348 74 l35 16 -24 13 c-12 7 -27 13 -33
13 -5 0 1 -6 14 -13 22 -12 14 -14 -80 -15 -222 -2 -550 84 -794 207 -49 25
-103 52 -120 60 -16 8 -41 23 -55 32 -14 9 -50 30 -80 47 -30 16 -104 59 -165
95 -118 71 -167 99 -257 149 -32 17 -58 35 -58 39 0 4 12 14 28 21 15 8 69 39
120 69 93 55 93 55 71 72 -14 12 -19 25 -16 38 3 11 2 20 -1 20 -4 0 -56 -30
-117 -66z"/>
<path d="M14975 7040 c8 -57 23 -88 47 -96 10 -3 18 -12 18 -20 0 -8 4 -13 8
-10 8 5 98 -118 119 -163 7 -14 12 -39 13 -54 0 -17 4 -26 10 -22 19 12 -18
163 -45 185 -8 7 -15 18 -15 25 0 19 -70 106 -81 100 -5 -3 -6 0 -4 7 3 8 -13
31 -36 53 l-41 40 7 -45z"/>
<path d="M6205 5900 c4 -73 60 -274 74 -267 14 8 136 81 141 84 3 3 -3 9 -12
14 -10 5 -55 56 -100 111 -46 56 -89 109 -96 118 -10 12 -12 2 -7 -60z"/>
<path d="M8037 4212 c-35 -39 -11 -138 54 -220 34 -43 59 -148 69 -289 11
-154 22 -201 63 -262 39 -58 131 -102 226 -109 l67 -4 -4 -57 c-5 -69 14 -97
96 -144 59 -33 106 -76 184 -169 55 -65 132 -118 207 -143 83 -27 246 -18 323
19 106 50 129 117 61 177 -33 28 -148 89 -179 93 -19 3 -124 86 -124 97 0 6
-6 9 -13 6 -8 -3 -20 -1 -28 5 -11 7 -9 8 6 3 14 -4 8 6 -20 34 -42 44 -50 49
-41 26 8 -22 -2 -18 -15 6 -8 15 -8 19 0 15 20 -13 11 5 -25 50 -20 24 -40 41
-45 38 -5 -3 -6 1 -4 8 3 8 -5 25 -17 38 -13 14 -22 26 -21 27 5 9 -11 42 -19
37 -5 -3 -6 -15 -3 -27 2 -12 2 -16 -1 -9 -5 10 -9 9 -20 -5 -8 -10 -6 1 5 24
12 23 17 44 12 48 -5 3 -11 0 -14 -7 -2 -7 -2 -3 0 9 3 18 -11 51 -44 106 -3
5 -17 -2 -32 -16 -27 -26 -85 -59 -111 -63 -8 -2 -29 -5 -46 -7 -17 -2 -36 -7
-42 -11 -7 -4 -12 -3 -12 3 0 6 -6 8 -13 5 -9 -3 -34 29 -73 93 -134 222 -374
591 -385 592 -3 1 -13 -7 -22 -17z"/>
</g>
</svg>
